<svg xmlns="http://www.w3.org/2000/svg" xmlns:xlink="http://www.w3.org/1999/xlink" viewBox="0 0 71.62 96.27"><defs><style>.cls-1{fill:url(#linear-gradient);}.cls-2{fill:url(#linear-gradient-2);}.cls-3{fill:url(#linear-gradient-3);}</style><linearGradient id="linear-gradient" y1="35.81" x2="71.62" y2="35.81" gradientUnits="userSpaceOnUse"><stop offset="0" stop-color="#54be96"/><stop offset="0.52" stop-color="#4bbd96"/><stop offset="0.98" stop-color="#21b99b"/></linearGradient><linearGradient id="linear-gradient-2" y1="48.14" x2="71.62" y2="48.14" xlink:href="#linear-gradient"/><linearGradient id="linear-gradient-3" y1="60.46" x2="71.62" y2="60.46" xlink:href="#linear-gradient"/></defs><g id="Layer_2" data-name="Layer 2"><g id="Layer_1-2" data-name="Layer 1"><path class="cls-1" d="M35.81,71.62A35.81,35.81,0,1,1,71.62,35.81,35.85,35.85,0,0,1,35.81,71.62Zm0-69.48A33.67,33.67,0,1,0,69.48,35.81,33.72,33.72,0,0,0,35.81,2.14Z"/><path class="cls-2" d="M35.81,84A35.81,35.81,0,1,1,71.62,48.14,35.85,35.85,0,0,1,35.81,84Zm0-69.48A33.67,33.67,0,1,0,69.48,48.14,33.71,33.71,0,0,0,35.81,14.47Z"/><path class="cls-3" d="M35.81,96.27A35.81,35.81,0,1,1,71.62,60.46,35.85,35.85,0,0,1,35.81,96.27Zm0-69.47A33.67,33.67,0,1,0,69.48,60.46,33.71,33.71,0,0,0,35.81,26.8Z"/></g></g></svg>